<svg width="64" height="64" viewBox="0 0 64 64" fill="none" xmlns="http://www.w3.org/2000/svg">
<path d="M49.92 43.6928H29.3952C28.6883 43.6928 28.1152 44.2659 28.1152 44.9728V47.5264C28.1152 48.2333 28.6883 48.8064 29.3952 48.8064H49.92C50.6269 48.8064 51.2 48.2333 51.2 47.5264V44.9728C51.2 44.2659 50.6269 43.6928 49.92 43.6928Z" fill="#090909"/>
<path fill-rule="evenodd" clip-rule="evenodd" d="M21.6448 48.8064H19.0848C18.7453 48.8064 18.4198 48.6715 18.1797 48.4315C17.9397 48.1915 17.8048 47.8659 17.8048 47.5264V44.9664C17.8048 44.6269 17.9397 44.3014 18.1797 44.0613C18.4198 43.8213 18.7453 43.6864 19.0848 43.6864H21.6448C21.9843 43.6864 22.3099 43.8213 22.5499 44.0613C22.7899 44.3014 22.9248 44.6269 22.9248 44.9664V47.5264C22.934 47.6969 22.9073 47.8675 22.8462 48.027C22.7851 48.1864 22.6912 48.3313 22.5704 48.452C22.4497 48.5728 22.3048 48.6667 22.1454 48.7278C21.9859 48.7889 21.8153 48.8156 21.6448 48.8064Z" fill="#090909"/>
<path fill-rule="evenodd" clip-rule="evenodd" d="M21.6448 37.3824H19.0848C18.7453 37.3824 18.4198 37.2475 18.1797 37.0075C17.9397 36.7675 17.8048 36.4419 17.8048 36.1024V33.5424C17.8048 33.2029 17.9397 32.8774 18.1797 32.6373C18.4198 32.3973 18.7453 32.2624 19.0848 32.2624H21.6448C21.9843 32.2624 22.3099 32.3973 22.5499 32.6373C22.7899 32.8774 22.9248 33.2029 22.9248 33.5424V36.1024C22.934 36.2729 22.9073 36.4435 22.8462 36.603C22.7851 36.7624 22.6912 36.9073 22.5704 37.028C22.4497 37.1488 22.3048 37.2427 22.1454 37.3038C21.9859 37.3649 21.8153 37.3916 21.6448 37.3824Z" fill="#090909"/>
<path d="M49.92 32.2688H29.3952C28.6883 32.2688 28.1152 32.8419 28.1152 33.5488V36.1024C28.1152 36.8093 28.6883 37.3824 29.3952 37.3824H49.92C50.6269 37.3824 51.2 36.8093 51.2 36.1024V33.5488C51.2 32.8419 50.6269 32.2688 49.92 32.2688Z" fill="#090909"/>
<path d="M49.92 20.8448H33.2288C32.5219 20.8448 31.9488 21.4179 31.9488 22.1248V24.6784C31.9488 25.3853 32.5219 25.9584 33.2288 25.9584H49.92C50.6269 25.9584 51.2 25.3853 51.2 24.6784V22.1248C51.2 21.4179 50.6269 20.8448 49.92 20.8448Z" fill="#090909"/>
<path fill-rule="evenodd" clip-rule="evenodd" d="M30.432 16.8512L29.0752 15.4944C28.9889 15.4005 28.884 15.3256 28.7672 15.2743C28.6505 15.2231 28.5243 15.1966 28.3968 15.1966C28.2693 15.1966 28.1431 15.2231 28.0264 15.2743C27.9096 15.3256 27.8047 15.4005 27.7184 15.4944L19.2512 23.8848L15.8144 20.5312C15.7281 20.4373 15.6232 20.3624 15.5064 20.3111C15.3897 20.2599 15.2635 20.2334 15.136 20.2334C15.0085 20.2334 14.8823 20.2599 14.7656 20.3111C14.6488 20.3624 14.5439 20.4373 14.4576 20.5312L13.1008 21.888C13.0069 21.9743 12.932 22.0792 12.8807 22.196C12.8295 22.3127 12.803 22.4389 12.803 22.5664C12.803 22.6939 12.8295 22.8201 12.8807 22.9368C12.932 23.0536 13.0069 23.1585 13.1008 23.2448L17.8112 27.9552C18.1712 28.3148 18.6592 28.5167 19.168 28.5167C19.6768 28.5167 20.1648 28.3148 20.5248 27.9552L30.432 18.2144C30.5884 18.0217 30.6738 17.781 30.6738 17.5328C30.6738 17.2846 30.5884 17.0439 30.432 16.8512Z" fill="#090909"/>
</svg>
