<svg width="224" height="64" viewBox="0 0 224 64" fill="none" xmlns="http://www.w3.org/2000/svg">
<line x1="64.5" y1="13" x2="64.5" y2="55" stroke="#090909"/>
<path d="M92.3359 40.5801C92.3359 40.86 92.1699 41 91.8379 41H89.4941C89.2467 41 88.9733 40.9121 88.6738 40.7363C88.3809 40.554 88.1562 40.3359 88 40.082L86.3398 37.4844C85.6562 36.4167 84.8294 35.8828 83.8594 35.8828H81.4766V40.082C81.4766 40.3359 81.3854 40.554 81.2031 40.7363C81.0273 40.9121 80.8125 41 80.5586 41H78.7227C78.4688 41 78.2507 40.9121 78.0684 40.7363C77.8861 40.554 77.7949 40.3359 77.7949 40.082V27.9238C77.7949 27.6699 77.8828 27.4518 78.0586 27.2695C78.2344 27.0872 78.4492 26.9961 78.7031 26.9961H86.7598C88.2507 26.9961 89.4714 27.3965 90.4219 28.1973C91.3789 28.998 91.8574 30.0788 91.8574 31.4395C91.8574 33.334 90.6302 34.5221 88.1758 35.0039C88.5664 35.1471 88.9277 35.3945 89.2598 35.7461C89.5918 36.0911 89.9727 36.5957 90.4023 37.2598L92.1797 40.082C92.2839 40.2643 92.3359 40.4303 92.3359 40.5801ZM81.4766 33.1191H85.6367C86.3073 33.1191 86.8965 32.9857 87.4043 32.7188C87.9186 32.4518 88.1758 32.0254 88.1758 31.4395C88.1758 30.8535 87.9186 30.4271 87.4043 30.1602C86.8965 29.8932 86.3073 29.7598 85.6367 29.7598H81.4766V33.1191ZM93.9668 40.0625V27.9043C93.9668 27.6504 94.0579 27.4355 94.2402 27.2598C94.4225 27.084 94.6406 26.9961 94.8945 26.9961H106.154C106.408 26.9961 106.623 27.0872 106.799 27.2695C106.981 27.4518 107.072 27.6699 107.072 27.9238V28.8418C107.072 29.0957 106.981 29.3138 106.799 29.4961C106.623 29.6719 106.408 29.7598 106.154 29.7598H97.6484V32.6016H104.973C105.227 32.6016 105.441 32.6927 105.617 32.875C105.799 33.0508 105.891 33.2656 105.891 33.5195V34.4375C105.891 34.6914 105.799 34.9095 105.617 35.0918C105.441 35.2676 105.227 35.3555 104.973 35.3555H97.6484V38.2363H106.135C106.382 38.2363 106.594 38.3242 106.77 38.5C106.945 38.6758 107.033 38.8906 107.033 39.1445V40.082C107.033 40.3359 106.942 40.554 106.76 40.7363C106.577 40.9121 106.359 41 106.105 41H94.8945C94.6406 41 94.4225 40.9121 94.2402 40.7363C94.0579 40.554 93.9668 40.3294 93.9668 40.0625ZM108.068 33.9004C108.068 31.4199 108.736 29.6003 110.07 28.4414C111.405 27.2826 113.365 26.7031 115.949 26.7031C118.54 26.7031 120.493 27.2533 121.809 28.3535C123.13 29.4538 123.791 31.2344 123.791 33.6953C123.791 34.9974 123.537 36.0586 123.029 36.8789C122.671 37.4714 122.287 37.9987 121.877 38.4609H123.43C123.697 38.4609 123.918 38.5521 124.094 38.7344C124.27 38.9102 124.357 39.125 124.357 39.3789V40.1797C124.357 40.4336 124.27 40.6517 124.094 40.834C123.918 41.0098 123.697 41.0977 123.43 41.0977H115.93C113.358 41.0977 111.405 40.5182 110.07 39.3594C108.736 38.2005 108.068 36.3809 108.068 33.9004ZM115.93 38.4609C118.716 38.4609 120.109 36.8724 120.109 33.6953C120.109 32.2174 119.781 31.1237 119.123 30.4141C118.465 29.6979 117.404 29.3398 115.939 29.3398C114.481 29.3398 113.417 29.7272 112.746 30.502C112.082 31.2767 111.75 32.4095 111.75 33.9004C111.75 35.3913 112.082 36.5241 112.746 37.2988C113.417 38.0736 114.478 38.4609 115.93 38.4609ZM124.963 37.416C124.963 37.0319 125.077 36.7585 125.305 36.5957C125.533 36.4264 125.754 36.3418 125.969 36.3418H127.131C127.717 36.3418 128.163 36.6608 128.469 37.2988C128.775 37.9368 129.462 38.2559 130.529 38.2559L133.947 38.3242C135.093 38.3242 135.666 37.9499 135.666 37.2012C135.666 36.6348 134.966 36.1888 133.566 35.8633C132.941 35.7135 132.251 35.5671 131.496 35.4238C130.741 35.2741 129.989 35.0885 129.24 34.8672C128.498 34.6458 127.814 34.3854 127.189 34.0859C126.564 33.7865 126.057 33.3763 125.666 32.8555C125.282 32.3281 125.09 31.7096 125.09 31C125.09 29.6914 125.555 28.6855 126.486 27.9824C127.417 27.2728 129.019 26.918 131.291 26.918L133.771 26.9766C135.106 26.9766 136.307 27.3216 137.375 28.0117C138.449 28.6953 138.986 29.5514 138.986 30.5801C138.986 30.9642 138.872 31.2409 138.645 31.4102C138.417 31.5794 138.199 31.6641 137.99 31.6641H136.828C136.242 31.6641 135.796 31.3451 135.49 30.707C135.184 30.0625 134.497 29.7402 133.43 29.7402L130.49 29.6816C129.344 29.6816 128.771 30.056 128.771 30.8047C128.771 31.2148 129.133 31.5501 129.855 31.8105C130.585 32.071 131.464 32.3021 132.492 32.5039C133.527 32.6992 134.566 32.9368 135.607 33.2168C136.649 33.4967 137.531 33.959 138.254 34.6035C138.983 35.2415 139.348 36.0391 139.348 36.9961C139.348 38.3047 138.879 39.3138 137.941 40.0234C137.01 40.7266 135.412 41.0781 133.146 41.0781L130.188 41.0195C128.853 41.0195 127.648 40.6777 126.574 39.9941C125.5 39.304 124.963 38.4447 124.963 37.416ZM139.855 27.4648C139.855 27.1523 140.025 26.9961 140.363 26.9961H142.219C142.954 26.9961 143.521 27.3053 143.918 27.9238L147.082 32.7969L150.236 27.9238C150.64 27.3053 151.206 26.9961 151.936 26.9961H153.801C154.133 26.9961 154.299 27.1523 154.299 27.4648C154.299 27.6081 154.247 27.7611 154.143 27.9238L148.918 36V40.1016C148.918 40.3555 148.827 40.5703 148.645 40.7461C148.469 40.9154 148.254 41 148 41H146.164C145.91 41 145.692 40.9154 145.51 40.7461C145.327 40.5703 145.236 40.3555 145.236 40.1016V36L140.021 27.9238C139.911 27.7611 139.855 27.6081 139.855 27.4648ZM154.904 37.416C154.904 37.0319 155.018 36.7585 155.246 36.5957C155.474 36.4264 155.695 36.3418 155.91 36.3418H157.072C157.658 36.3418 158.104 36.6608 158.41 37.2988C158.716 37.9368 159.403 38.2559 160.471 38.2559L163.889 38.3242C165.035 38.3242 165.607 37.9499 165.607 37.2012C165.607 36.6348 164.908 36.1888 163.508 35.8633C162.883 35.7135 162.193 35.5671 161.438 35.4238C160.682 35.2741 159.93 35.0885 159.182 34.8672C158.439 34.6458 157.756 34.3854 157.131 34.0859C156.506 33.7865 155.998 33.3763 155.607 32.8555C155.223 32.3281 155.031 31.7096 155.031 31C155.031 29.6914 155.497 28.6855 156.428 27.9824C157.359 27.2728 158.96 26.918 161.232 26.918L163.713 26.9766C165.048 26.9766 166.249 27.3216 167.316 28.0117C168.391 28.6953 168.928 29.5514 168.928 30.5801C168.928 30.9642 168.814 31.2409 168.586 31.4102C168.358 31.5794 168.14 31.6641 167.932 31.6641H166.77C166.184 31.6641 165.738 31.3451 165.432 30.707C165.126 30.0625 164.439 29.7402 163.371 29.7402L160.432 29.6816C159.286 29.6816 158.713 30.056 158.713 30.8047C158.713 31.2148 159.074 31.5501 159.797 31.8105C160.526 32.071 161.405 32.3021 162.434 32.5039C163.469 32.6992 164.507 32.9368 165.549 33.2168C166.59 33.4967 167.473 33.959 168.195 34.6035C168.924 35.2415 169.289 36.0391 169.289 36.9961C169.289 38.3047 168.82 39.3138 167.883 40.0234C166.952 40.7266 165.354 41.0781 163.088 41.0781L160.129 41.0195C158.794 41.0195 157.59 40.6777 156.516 39.9941C155.441 39.304 154.904 38.4447 154.904 37.416ZM171.291 40.0625V27.9434C171.291 27.6764 171.379 27.4518 171.555 27.2695C171.73 27.0872 171.945 26.9961 172.199 26.9961H176.174C176.428 26.9961 176.669 27.0872 176.896 27.2695C177.124 27.4518 177.277 27.6699 177.355 27.9238L180.236 36.2637L183.117 27.9238C183.195 27.6699 183.348 27.4518 183.576 27.2695C183.804 27.0872 184.045 26.9961 184.299 26.9961H188.273C188.527 26.9961 188.739 27.0872 188.908 27.2695C189.084 27.4518 189.172 27.6764 189.172 27.9434V40.0625C189.172 40.3294 189.081 40.554 188.898 40.7363C188.723 40.9121 188.508 41 188.254 41H186.496C186.242 41 186.024 40.9121 185.842 40.7363C185.666 40.554 185.578 40.3294 185.578 40.0625V30.5215L182.131 40.1211C182.04 40.362 181.88 40.5703 181.652 40.7461C181.424 40.9154 181.184 41 180.93 41H179.533C179.279 41 179.038 40.9154 178.811 40.7461C178.589 40.5703 178.43 40.362 178.332 40.1211L174.895 30.5215V40.0625C174.895 40.3294 174.803 40.554 174.621 40.7363C174.445 40.9121 174.23 41 173.977 41H172.219C171.965 41 171.747 40.9121 171.564 40.7363C171.382 40.554 171.291 40.3294 171.291 40.0625ZM190.822 40.1016L193.273 30.8047C193.938 28.2721 196.099 27.0026 199.758 26.9961H205.021C205.262 26.9961 205.461 27.0872 205.617 27.2695C205.78 27.4518 205.861 27.6634 205.861 27.9043V40.1016C205.861 40.3555 205.77 40.5703 205.588 40.7461C205.406 40.9154 205.188 41 204.934 41H203.098C202.831 41 202.609 40.9154 202.434 40.7461C202.264 40.5703 202.18 40.349 202.18 40.082V37.6211H195.236L194.582 40.082C194.517 40.349 194.37 40.5703 194.143 40.7461C193.915 40.9154 193.674 41 193.42 41H191.496C191.242 41 191.06 40.9284 190.949 40.7852C190.839 40.6354 190.783 40.5052 190.783 40.3945C190.79 40.2839 190.803 40.1862 190.822 40.1016ZM195.959 34.8574H202.18V29.7598H199.396C198.771 29.7598 198.225 29.9388 197.756 30.2969C197.294 30.6484 196.981 31.1237 196.818 31.7227L195.959 34.8574ZM208.654 40.082V27.9238C208.654 27.6699 208.742 27.4518 208.918 27.2695C209.094 27.0872 209.309 26.9961 209.562 26.9961H212.434C212.661 26.9961 212.902 27.0872 213.156 27.2695C213.41 27.4518 213.618 27.6699 213.781 27.9238L219.68 36.9961V27.9043C219.68 27.6504 219.768 27.4355 219.943 27.2598C220.126 27.084 220.344 26.9961 220.598 26.9961H222.277C222.531 26.9961 222.746 27.084 222.922 27.2598C223.104 27.4355 223.195 27.6569 223.195 27.9238V40.082C223.195 40.3359 223.104 40.554 222.922 40.7363C222.746 40.9121 222.531 41 222.277 41H219.035C218.781 41 218.521 40.9121 218.254 40.7363C217.987 40.554 217.775 40.3359 217.619 40.082L212.219 31.7031V40.082C212.219 40.3359 212.128 40.554 211.945 40.7363C211.77 40.9121 211.555 41 211.301 41H209.582C209.328 41 209.11 40.9121 208.928 40.7363C208.745 40.554 208.654 40.3359 208.654 40.082Z" fill="#090909"/>
<path d="M49.92 43.6928H29.3952C28.6883 43.6928 28.1152 44.2659 28.1152 44.9728V47.5264C28.1152 48.2333 28.6883 48.8064 29.3952 48.8064H49.92C50.6269 48.8064 51.2 48.2333 51.2 47.5264V44.9728C51.2 44.2659 50.6269 43.6928 49.92 43.6928Z" fill="#090909"/>
<path fill-rule="evenodd" clip-rule="evenodd" d="M21.6448 48.8064H19.0848C18.7453 48.8064 18.4198 48.6715 18.1797 48.4315C17.9397 48.1915 17.8048 47.8659 17.8048 47.5264V44.9664C17.8048 44.6269 17.9397 44.3014 18.1797 44.0613C18.4198 43.8213 18.7453 43.6864 19.0848 43.6864H21.6448C21.9843 43.6864 22.3099 43.8213 22.5499 44.0613C22.7899 44.3014 22.9248 44.6269 22.9248 44.9664V47.5264C22.934 47.6969 22.9073 47.8675 22.8462 48.027C22.7851 48.1864 22.6912 48.3313 22.5704 48.452C22.4497 48.5728 22.3048 48.6667 22.1454 48.7278C21.9859 48.7889 21.8153 48.8156 21.6448 48.8064Z" fill="#090909"/>
<path fill-rule="evenodd" clip-rule="evenodd" d="M21.6448 37.3824H19.0848C18.7453 37.3824 18.4198 37.2475 18.1797 37.0075C17.9397 36.7675 17.8048 36.4419 17.8048 36.1024V33.5424C17.8048 33.2029 17.9397 32.8774 18.1797 32.6373C18.4198 32.3973 18.7453 32.2624 19.0848 32.2624H21.6448C21.9843 32.2624 22.3099 32.3973 22.5499 32.6373C22.7899 32.8774 22.9248 33.2029 22.9248 33.5424V36.1024C22.934 36.2729 22.9073 36.4435 22.8462 36.603C22.7851 36.7624 22.6912 36.9073 22.5704 37.028C22.4497 37.1488 22.3048 37.2427 22.1454 37.3038C21.9859 37.3649 21.8153 37.3916 21.6448 37.3824Z" fill="#090909"/>
<path d="M49.92 32.2688H29.3952C28.6883 32.2688 28.1152 32.8419 28.1152 33.5488V36.1024C28.1152 36.8093 28.6883 37.3824 29.3952 37.3824H49.92C50.6269 37.3824 51.2 36.8093 51.2 36.1024V33.5488C51.2 32.8419 50.6269 32.2688 49.92 32.2688Z" fill="#090909"/>
<path d="M49.92 20.8448H33.2288C32.5219 20.8448 31.9488 21.4179 31.9488 22.1248V24.6784C31.9488 25.3853 32.5219 25.9584 33.2288 25.9584H49.92C50.6269 25.9584 51.2 25.3853 51.2 24.6784V22.1248C51.2 21.4179 50.6269 20.8448 49.92 20.8448Z" fill="#090909"/>
<path fill-rule="evenodd" clip-rule="evenodd" d="M30.432 16.8512L29.0752 15.4944C28.9889 15.4005 28.884 15.3256 28.7672 15.2743C28.6505 15.2231 28.5243 15.1966 28.3968 15.1966C28.2693 15.1966 28.1431 15.2231 28.0264 15.2743C27.9096 15.3256 27.8047 15.4005 27.7184 15.4944L19.2512 23.8848L15.8144 20.5312C15.7281 20.4373 15.6232 20.3624 15.5064 20.3111C15.3897 20.2599 15.2635 20.2334 15.136 20.2334C15.0085 20.2334 14.8823 20.2599 14.7656 20.3111C14.6488 20.3624 14.5439 20.4373 14.4576 20.5312L13.1008 21.888C13.0069 21.9743 12.932 22.0792 12.8807 22.196C12.8295 22.3127 12.803 22.4389 12.803 22.5664C12.803 22.6939 12.8295 22.8201 12.8807 22.9368C12.932 23.0536 13.0069 23.1585 13.1008 23.2448L17.8112 27.9552C18.1712 28.3148 18.6592 28.5167 19.168 28.5167C19.6768 28.5167 20.1648 28.3148 20.5248 27.9552L30.432 18.2144C30.5884 18.0217 30.6738 17.781 30.6738 17.5328C30.6738 17.2846 30.5884 17.0439 30.432 16.8512Z" fill="#090909"/>
</svg>
